<?xml version="1.0" encoding="UTF-8" standalone="no"?>
<!-- Created with Inkscape (http://www.inkscape.org/) -->

<svg
   width="210mm"
   height="297mm"
   viewBox="0 0 210 297"
   version="1.1"
   id="svg1"
   inkscape:version="1.3.2 (091e20e, 2023-11-25, custom)"
   sodipodi:docname="alternatorfaste_oron_02.svg"
   xmlns:inkscape="http://www.inkscape.org/namespaces/inkscape"
   xmlns:sodipodi="http://sodipodi.sourceforge.net/DTD/sodipodi-0.dtd"
   xmlns="http://www.w3.org/2000/svg"
   xmlns:svg="http://www.w3.org/2000/svg">
  <sodipodi:namedview
     id="namedview1"
     pagecolor="#ffffff"
     bordercolor="#000000"
     borderopacity="0.25"
     inkscape:showpageshadow="2"
     inkscape:pageopacity="0.0"
     inkscape:pagecheckerboard="0"
     inkscape:deskcolor="#d1d1d1"
     inkscape:document-units="mm"
     inkscape:zoom="2.3579016"
     inkscape:cx="219.68686"
     inkscape:cy="48.984232"
     inkscape:window-width="1920"
     inkscape:window-height="1129"
     inkscape:window-x="1912"
     inkscape:window-y="-8"
     inkscape:window-maximized="1"
     inkscape:current-layer="layer1"
     showguides="true">
    <sodipodi:guide
       position="12.164361,265.158"
       orientation="1,0"
       id="guide5"
       inkscape:locked="false" />
  </sodipodi:namedview>
  <defs
     id="defs1" />
  <g
     inkscape:label="Layer 1"
     inkscape:groupmode="layer"
     id="layer1">
    <path
       id="path10"
       style="fill:#000000;stroke-width:0.264583"
       d="m 17.936989,12.529807 a 5,5 0 0 1 -5,5 5,5 0 0 1 -5,-5 5,5 0 0 1 5,-4.9999994 5,5 0 0 1 5,4.9999994 z M 12.943446,2.2382186 c -5.539994,0 -9.999906,4.45991 -9.999906,9.9999094 V 22.40132 H 2.93062 v 15.00012 h 19.999816 v -9.64747 c 0.009,-0.17091 0.0129,-0.3426 0.0129,-0.51573 V 12.238128 c 0,-5.5399994 -4.45992,-9.9999094 -9.999911,-9.9999094 z" />
    <path
       id="path10-4"
       style="fill:#000000;stroke-width:0.264583"
       d="m 44.117686,12.417598 a 5,5 0 0 1 -5,5 5,5 0 0 1 -5,-5 5,5 0 0 1 5,-4.9999994 5,5 0 0 1 5,4.9999994 z M 39.124143,2.1260086 c -5.539994,0 -9.999906,4.459908 -9.999906,9.9999094 v 10.163191 h -0.01292 v 15.00012 h 19.999816 v -9.64747 c 0.009,-0.17092 0.0129,-0.34261 0.0129,-0.51573 V 12.125918 c 0,-5.5400014 -4.45992,-9.9999094 -9.999911,-9.9999094 z" />
  </g>
</svg>
